Coordinates
version=1
nRows=16
nColumns=22
inDegrees=yes

Units are S.I. units (second, meters, Newtons, ...)
If the header above contains a line with 'inDegrees', this indicates whether rotational values are in degrees (yes) or radians (no).

endheader
time	pelvis_tilt	pelvis_list	pelvis_rotation	pelvis_tx	pelvis_ty	pelvis_tz	hip_flexion_r	hip_adduction_r	hip_rotation_r	knee_angle_r	ankle_angle_r	subtalar_angle_r	hip_flexion_l	hip_adduction_l	hip_rotation_l	knee_angle_l	ankle_angle_l	subtalar_angle_l	lumbar_extension	lumbar_bending	lumbar_rotation
      0.01000000	      0.83532753	     -1.00329431	    -34.34836338	     -0.93082379	      0.90460525	     -0.43622857	     -3.40627547	     -0.22879281	     -6.11247284	    -10.59438186	     19.23742677	     -4.01679460	     -0.29767576	     -1.07526728	     -8.98413138	    -17.53814233	     19.25044678	     -3.13808874	     -6.96575061	     -1.63810056	      4.74894082
      0.02000000	      0.83429866	     -1.00312918	    -34.34215993	     -0.93079218	      0.90459593	     -0.43624468	     -3.40693031	     -0.22842115	     -6.11342194	    -10.59433813	     19.23893692	     -4.01760244	     -0.29741126	     -1.07502559	     -8.98500127	    -17.53759797	     19.25111610	     -3.13714280	     -6.96415234	     -1.63878021	      4.75123639
      0.03000000	      0.83305562	     -1.00354963	    -34.34166433	     -0.93076927	      0.90458463	     -0.43625978	     -3.40665979	     -0.22842890	     -6.11398530	    -10.59423010	     19.23913964	     -4.01772229	     -0.29769414	     -1.07465021	     -8.98512485	    -17.53761636	     19.25123159	     -3.13704968	     -6.96427851	     -1.63950343	      4.75166858
      0.04000000	      0.82450695	     -0.99321874	    -34.33259876	     -0.93071942	      0.90455335	     -0.43626140	     -3.39293811	     -0.23479763	     -6.17353803	    -10.59913681	     19.25565355	     -4.02725267	     -0.29058934	     -1.07013841	     -8.98503011	    -17.52718857	     19.26188306	     -3.13123752	     -6.94397801	     -1.65231909	      4.78663693
      0.05000000	      0.82235329	     -0.99147541	    -34.32252376	     -0.93069333	      0.90453773	     -0.43629459	     -3.38828928	     -0.23513307	     -6.17710596	    -10.60395324	     19.25826486	     -4.02838270	     -0.28877115	     -1.06854974	     -8.98625367	    -17.52326999	     19.26337117	     -3.13053354	     -6.94572372	     -1.65504087	      4.78881720
      0.06000000	      0.81726626	     -0.97671653	    -34.31396860	     -0.93062788	      0.90449721	     -0.43631594	     -3.35715173	     -0.25208389	     -6.23605874	    -10.64496610	     19.29196681	     -4.04165865	     -0.28461716	     -1.05344916	     -8.97257184	    -17.50961756	     19.27910414	     -3.12361838	     -6.92592226	     -1.66825808	      4.80578371
      0.07000000	      0.81584423	     -0.97570612	    -34.29900307	     -0.93057516	      0.90447779	     -0.43633347	     -3.35714574	     -0.25120236	     -6.23388808	    -10.64935281	     19.29411685	     -4.04218926	     -0.28534145	     -1.05373347	     -8.97374664	    -17.50662779	     19.27969453	     -3.12343618	     -6.92494305	     -1.67280506	      4.80857964
      0.08000000	      0.81537228	     -0.97489147	    -34.28252891	     -0.93050030	      0.90445723	     -0.43634901	     -3.35884276	     -0.25137997	     -6.23188131	    -10.65564674	     19.29746948	     -4.04303583	     -0.28861867	     -1.05272554	     -8.97413266	    -17.50310141	     19.28114129	     -3.12308125	     -6.92127889	     -1.67564562	      4.81323656
      0.09000000	      0.81553286	     -0.97403316	    -34.26352153	     -0.93041520	      0.90443595	     -0.43636273	     -3.36138584	     -0.25179969	     -6.22912864	    -10.66343767	     19.30234781	     -4.04420529	     -0.29361587	     -1.05133568	     -8.97363354	    -17.49778888	     19.28353293	     -3.12252651	     -6.91773234	     -1.67879558	      4.81923517
      0.10000000	      0.83463515	     -0.96998606	    -34.25128799	     -0.93032261	      0.90442912	     -0.43637021	     -3.36539710	     -0.26997218	     -6.23643765	    -10.69782377	     19.36930780	     -4.06411564	     -0.33724271	     -1.02504916	     -8.92651481	    -17.44948824	     19.31291029	     -3.11376022	     -6.93170202	     -1.69834178	      4.84009504
      0.11000000	      0.83590620	     -0.96864538	    -34.23043102	     -0.93022243	      0.90440789	     -0.43638510	     -3.37060189	     -0.27151326	     -6.23148123	    -10.70439754	     19.37069971	     -4.06550176	     -0.34169736	     -1.02277315	     -8.92934006	    -17.44766626	     19.31289751	     -3.11373738	     -6.92896155	     -1.70036652	      4.84361085
      0.12000000	      0.83773723	     -0.96728412	    -34.20854664	     -0.93012466	      0.90438865	     -0.43639643	     -3.37585492	     -0.27267790	     -6.22542063	    -10.71227176	     19.37403545	     -4.06737512	     -0.34725908	     -1.02049615	     -8.93021983	    -17.44367048	     19.31387325	     -3.11349491	     -6.92871065	     -1.70469024	      4.84735149
      0.13000000	      0.88291983	     -0.96357086	    -34.19393854	     -0.93003154	      0.90441555	     -0.43641936	     -3.40580581	     -0.30573073	     -6.20998853	    -10.74380411	     19.43719961	     -4.10286919	     -0.41042618	     -0.97748857	     -8.88008051	    -17.40159073	     19.33018704	     -3.10780972	     -6.97631649	     -1.73887893	      4.84334938
      0.14000000	      0.88240121	     -0.96172441	    -34.17290917	     -0.92992351	      0.90439446	     -0.43642776	     -3.41061512	     -0.30610089	     -6.20740696	    -10.74806377	     19.43813429	     -4.10502047	     -0.41511355	     -0.97600777	     -8.88381969	    -17.39715799	     19.32940356	     -3.10818660	     -6.97432404	     -1.74099299	      4.84881024
      0.15000000	      0.88242702	     -0.95955439	    -34.15212881	     -0.92981526	      0.90437553	     -0.43643618	     -3.41520599	     -0.30726101	     -6.20418392	    -10.75366897	     19.44052488	     -4.10793077	     -0.42092941	     -0.97355045	     -8.88535057	    -17.39114569	     19.32966103	     -3.10838756	     -6.97445145	     -1.74455943	      4.85396070
      0.16000000	      0.88252015	     -0.95699804	    -34.13222707	     -0.92970430	      0.90435531	     -0.43644455	     -3.41940001	     -0.30919565	     -6.20072440	    -10.76018719	     19.44374937	     -4.11117561	     -0.42725916	     -0.96972445	     -8.88522064	    -17.38429235	     19.33088601	     -3.10841780	     -6.97565092	     -1.74811615	      4.85911218
